<?xml version="1.0" standalone="no"?>
<!DOCTYPE svg PUBLIC "-//W3C//DTD SVG 1.1//EN" "http://www.w3.org/Graphics/SVG/1.1/DTD/svg11.dtd">
<svg xmlns:inkscape="http://www.inkscape.org/namespaces/inkscape" xmlns:sodipodi="http://sodipodi.sourceforge.net/DTD/sodipodi-0.dtd" xmlns="http://www.w3.org/2000/svg" xmlns:svg="http://www.w3.org/2000/svg" width="210" height="297" viewBox="0 0 210 297" version="1.1" id="svg1" inkscape:version="1.3.2 (091e20e, 2023-11-25, custom)" sodipodi:docname="BRIDA DATAR.svg">
  <sodipodi:namedview id="namedview1" pagecolor="#ffffff" bordercolor="#000000" borderopacity="0.25" inkscape:showpageshadow="2" inkscape:pageopacity="0.0" inkscape:pagecheckerboard="0" inkscape:deskcolor="#d1d1d1" inkscape:document-units="mm" inkscape:zoom="0.76702441" inkscape:cx="396.98867" inkscape:cy="455.65695" inkscape:window-width="1920" inkscape:window-height="1057" inkscape:window-x="-8" inkscape:window-y="-8" inkscape:window-maximized="1" inkscape:current-layer="layer1"/>
  <defs id="defs1"/>
  <g inkscape:label="Layer 1" inkscape:groupmode="layer" id="layer1">
    <g id="g1" transform="translate(10.693379,2.7595819)">
      <g id="g4" transform="matrix(0.20751617,0,0,0.20764586,-5.647079,3.5390392)">
        <path id="path14" style="opacity:0.995;fill:#ec2425;fill-opacity:1;fill-rule:nonzero;stroke:none;stroke-width:0.088352" d="m 149.16263,307.79368 c 2.2176,5.29656 11.50951,11.02906 20.08223,14.47475 2.55513,1.02744 5.01304,1.69387 7.42415,3.0992 7.56022,4.41067 7.96486,11.34412 0.29334,18.26104 -13.18997,11.89083 -33.19445,12.38649 -48.53689,2.34889 -42.546598,-24.96194 -78.439983,-79.04595 -79.800117,-135.55453 19.219186,14.36504 42.369946,14.44102 64.393157,14.33411 12.23735,-0.0592 24.36251,-2.12748 36.64508,-1.69721 37.06159,1.29698 57.18179,33.8067 53.78821,67.29333 -0.48945,4.82864 -1.57882,11.64961 -3.87153,15.97254 -2.86257,5.39227 -7.60264,7.59 -15.31835,7.93996 -12.21012,0.55255 -23.67458,-2.18121 -35.09928,-6.47208"/>
        <path id="path16" style="opacity:0.995;fill:#ec2425;fill-opacity:1;fill-rule:nonzero;stroke:none;stroke-width:0.088352" d="M 386.51905,183.80901 C 373.12235,75.091077 272.82606,11.669932 172.55715,38.317532 c 23.10031,10.868079 34.23256,29.919266 41.73092,52.677652 7.45951,22.636466 10.33534,46.046896 9.72395,69.730306 -0.40996,15.95092 10.42985,34.32976 34.09914,34.42781 41.49415,0.16964 82.98919,-0.0203 124.48244,0.17229 3.6012,0.18024 4.46349,-1.66542 4.52359,-4.00142 0.0548,-2.154 -0.31896,-5.24719 -0.59814,-7.51516 z M 295.51378,81.730677 c 1.38533,0 1.87921,0.851693 2.12218,1.8492 0.3534,1.451587 0.53363,2.67968 0.9754,4.18696 1.7467,5.968987 3.6498,11.890293 6.5592,17.372493 5.89302,11.10751 16.02778,16.24603 27.26251,19.87019 2.67616,0.86408 4.04827,0.97098 6.76948,1.41714 1.79795,0.2951 3.30964,0.90383 3.33173,2.84404 -0.0221,1.94106 -1.53378,2.5498 -3.33173,2.84491 -2.72121,0.44617 -4.09332,0.55308 -6.76948,1.41716 -11.23473,3.62504 -21.36949,8.76355 -27.26251,19.87017 -2.9094,5.4822 -4.8125,11.40348 -6.5592,17.37251 -0.44177,1.50638 -0.622,2.73534 -0.9754,4.18697 -0.24297,0.99747 -0.73685,1.84917 -2.12218,1.84917 -1.38447,0 -1.87836,-0.8517 -2.12132,-1.84917 -0.35342,-1.45163 -0.53366,-2.68059 -0.9754,-4.18697 -1.74671,-5.96903 -3.65067,-11.89031 -6.5592,-17.37251 -5.89391,-11.10662 -16.02868,-16.24513 -27.26254,-19.87017 -2.67705,-0.86408 -4.04913,-0.97099 -6.76946,-1.41716 -1.79884,-0.29511 -3.30966,-0.90385 -3.33174,-2.84491 0.0221,-1.94021 1.5329,-2.54894 3.33174,-2.84404 2.72033,-0.44616 4.09241,-0.55306 6.76946,-1.41714 11.23386,-3.62416 21.36863,-8.76268 27.26254,-19.87019 2.90853,-5.4822 4.81249,-11.403506 6.5592,-17.372493 0.44174,-1.50728 0.62198,-2.735373 0.9754,-4.18696 0.24296,-0.997507 0.73685,-1.8492 2.12132,-1.8492"/>
        <path id="path18" style="opacity:0.995;fill:#ec2425;fill-opacity:1;fill-rule:nonzero;stroke:none;stroke-width:0.088352" d="m 386.51905,219.96145 c -13.3967,108.71758 -113.69299,172.13925 -213.9619,145.49105 23.09942,-10.86828 34.23256,-29.91927 41.73092,-52.67766 7.45951,-22.63621 10.33534,-46.04643 9.72482,-69.73075 -0.41083,-15.95094 10.42898,-34.32975 34.09827,-34.42783 41.49503,-0.16873 82.98919,0.0212 124.48244,-0.17228 3.6012,-0.17936 4.46349,1.66631 4.52359,4.00141 0.0548,2.1549 -0.31896,5.24808 -0.59814,7.51606"/>
        <path id="path20" style="opacity:0.995;fill:#ec2425;fill-opacity:1;fill-rule:evenodd;stroke:none;stroke-width:0.088352" d="m 129.67377,78.039371 c 33.96078,0 61.4919,27.531119 61.4919,61.492439 0,33.96133 -27.53112,61.49154 -61.4919,61.49154 -33.961068,0 -61.491721,-27.53021 -61.491721,-61.49154 0,-33.96132 27.530653,-61.492439 61.491721,-61.492439"/>
      </g>
      <text xml:space="preserve" style="font-style:normal;font-variant:normal;font-weight:normal;font-stretch:normal;font-size:22.5778px;font-family:sans-serif;-inkscape-font-specification:sans-serif;fill:#666666;stroke-width:0.264583" x="88.489326" y="43.269142" id="text4"><tspan id="tspan4" style="font-weight:bold;font-size:22.5778px;fill:#666666;stroke-width:0.264583" x="88.489326" y="43.269142" sodipodi:role="line">BRIDA</tspan></text>
      <text xml:space="preserve" style="font-style:normal;font-variant:normal;font-weight:normal;font-stretch:normal;font-size:14px;font-family:sans-serif;-inkscape-font-specification:sans-serif;white-space:pre;inline-size:349.152;display:inline;fill:#f9f9f9;stroke-width:0.75" x="988.89417" y="-318.48907" id="text1" transform="matrix(0.35277776,0,0,0.35277776,-269.0394,166.68172)"><tspan x="988.89417" y="-318.48907" id="tspan2"><tspan style="font-weight:bold;fill:#666666" id="tspan1">BADAN RISET DAN INOVASI DAERAH</tspan></tspan></text>
      <text xml:space="preserve" style="font-style:normal;font-variant:normal;font-weight:normal;font-stretch:normal;font-size:28px;font-family:sans-serif;-inkscape-font-specification:sans-serif;white-space:pre;inline-size:349.152;display:inline;fill:#f9f9f9;stroke-width:0.75" x="988.89417" y="-318.48907" id="text1-0" transform="matrix(0.35277776,0,0,0.35277776,-265.59561,180.7464)"><tspan x="988.89417" y="-318.48907" id="tspan5"><tspan style="font-weight:bold;fill:#666666" id="tspan3">PROVINSI JAMBI</tspan></tspan></text>
    </g>
  </g>
</svg>